HIERARCHY
ROOT hip
{
  OFFSET 0 0 0
  CHANNELS 6 Xposition Yposition Zposition Zrotation Yrotation Xrotation
  JOINT abdomen
  {
    OFFSET 0 20.6881 -0.73152
    CHANNELS 3 Zrotation Xrotation Yrotation
    JOINT chest
    {
      OFFSET 0 11.7043 -0.48768
      CHANNELS 3 Zrotation Xrotation Yrotation
      JOINT neck
      {
        OFFSET 0 22.1894 -2.19456
        CHANNELS 3 Zrotation Xrotation Yrotation
        JOINT head
        {
          OFFSET -0.24384 7.07133 1.2192
          CHANNELS 3 Zrotation Xrotation Yrotation
          JOINT leftEye
          {
            OFFSET 4.14528 8.04674 8.04672
            CHANNELS 3 Zrotation Xrotation Yrotation
            End Site
            {
              OFFSET 1 0 0
            }
          }
          JOINT rightEye
          {
            OFFSET -3.6576 8.04674 8.04672
            CHANNELS 3 Zrotation Xrotation Yrotation
            End Site
            {
              OFFSET 1 0 0
            }
          }
        }
      }
      JOINT rCollar
      {
        OFFSET -2.68224 19.2634 -4.8768
        CHANNELS 3 Zrotation Xrotation Yrotation
        JOINT rShldr
        {
          OFFSET -8.77824 -1.95073 1.46304
          CHANNELS 3 Zrotation Xrotation Yrotation
          JOINT rForeArm
          {
            OFFSET -28.1742 -1.7115 0.48768
            CHANNELS 3 Zrotation Xrotation Yrotation
            JOINT rHand
            {
              OFFSET -22.5879 0.773209 7.07136
              CHANNELS 3 Zrotation Xrotation Yrotation
              JOINT rThumb1
              {
                OFFSET -1.2192 -0.487915 3.41376
                CHANNELS 3 Zrotation Xrotation Yrotation
                JOINT rThumb2
                {
                  OFFSET -3.37035 -0.52449 3.41376
                  CHANNELS 3 Zrotation Xrotation Yrotation
                  End Site
                  {
                    OFFSET -1.78271 -1.18214 1.43049
                  }
                }
              }
              JOINT rIndex1
              {
                OFFSET -7.75947 0.938293 5.60832
                CHANNELS 3 Zrotation Xrotation Yrotation
                JOINT rIndex2
                {
                  OFFSET -2.54057 -0.884171 1.56538
                  CHANNELS 3 Zrotation Xrotation Yrotation
                  End Site
                  {
                    OFFSET -1.62519 -0.234802 1.16502
                  }
                }
              }
              JOINT rMid1
              {
                OFFSET -8.24714 1.18213 3.41376
                CHANNELS 3 Zrotation Xrotation Yrotation
                JOINT rMid2
                {
                  OFFSET -3.10165 -0.590103 1.0647
                  CHANNELS 3 Zrotation Xrotation Yrotation
                  End Site
                  {
                    OFFSET -2.48547 -0.328903 0.83742
                  }
                }
              }
              JOINT rRing1
              {
                OFFSET -8.82822 0.546677 1.51678
                CHANNELS 3 Zrotation Xrotation Yrotation
                JOINT rRing2
                {
                  OFFSET -2.60934 -0.819778 -0.0198488
                  CHANNELS 3 Zrotation Xrotation Yrotation
                  End Site
                  {
                    OFFSET -2.33842 -0.294052 0.168128
                  }
                }
              }
              JOINT rPinky1
              {
                OFFSET -8.27202 -0.0477905 -0.4584
                CHANNELS 3 Zrotation Xrotation Yrotation
                JOINT rPinky2
                {
                  OFFSET -1.82734 -0.647385 -0.700984
                  CHANNELS 3 Zrotation Xrotation Yrotation
                  End Site
                  {
                    OFFSET -1.69225 -0.51767 -0.607171
                  }
                }
              }
            }
          }
        }
      }
      JOINT lCollar
      {
        OFFSET 2.68224 19.2634 -4.8768
        CHANNELS 3 Zrotation Xrotation Yrotation
        JOINT lShldr
        {
          OFFSET 8.77824 -1.95073 1.46304
          CHANNELS 3 Zrotation Xrotation Yrotation
          JOINT lForeArm
          {
            OFFSET 28.1742 -1.7115 0.48768
            CHANNELS 3 Zrotation Xrotation Yrotation
            JOINT lHand
            {
              OFFSET 22.5879 0.773209 7.07136
              CHANNELS 3 Zrotation Xrotation Yrotation
              JOINT lThumb1
              {
                OFFSET 1.2192 -0.487915 3.41376
                CHANNELS 3 Zrotation Xrotation Yrotation
                JOINT lThumb2
                {
                  OFFSET 3.37035 -0.52449 3.41376
                  CHANNELS 3 Zrotation Xrotation Yrotation
                  End Site
                  {
                    OFFSET 1.78271 -1.18214 1.43049
                  }
                }
              }
              JOINT lIndex1
              {
                OFFSET 7.75947 0.938293 5.60832
                CHANNELS 3 Zrotation Xrotation Yrotation
                JOINT lIndex2
                {
                  OFFSET 2.54057 -0.884171 1.56538
                  CHANNELS 3 Zrotation Xrotation Yrotation
                  End Site
                  {
                    OFFSET 1.62519 -0.234802 1.16502
                  }
                }
              }
              JOINT lMid1
              {
                OFFSET 8.24714 1.18213 3.41376
                CHANNELS 3 Zrotation Xrotation Yrotation
                JOINT lMid2
                {
                  OFFSET 3.10165 -0.590103 1.0647
                  CHANNELS 3 Zrotation Xrotation Yrotation
                  End Site
                  {
                    OFFSET 2.48547 -0.328903 0.83742
                  }
                }
              }
              JOINT lRing1
              {
                OFFSET 8.82822 0.546677 1.51678
                CHANNELS 3 Zrotation Xrotation Yrotation
                JOINT lRing2
                {
                  OFFSET 2.60934 -0.819778 -0.0198488
                  CHANNELS 3 Zrotation Xrotation Yrotation
                  End Site
                  {
                    OFFSET 2.33842 -0.294052 0.168128
                  }
                }
              }
              JOINT lPinky1
              {
                OFFSET 8.27202 -0.0477905 -0.4584
                CHANNELS 3 Zrotation Xrotation Yrotation
                JOINT lPinky2
                {
                  OFFSET 1.82734 -0.647385 -0.700984
                  CHANNELS 3 Zrotation Xrotation Yrotation
                  End Site
                  {
                    OFFSET 1.69225 -0.51767 -0.607171
                  }
                }
              }
            }
          }
        }
      }
    }
  }
  JOINT rButtock
  {
    OFFSET -8.77824 4.35084 1.2192
    CHANNELS 3 Zrotation Xrotation Yrotation
    JOINT rThigh
    {
      OFFSET 0 -1.70687 -2.19456
      CHANNELS 3 Zrotation Xrotation Yrotation
      JOINT rShin
      {
        OFFSET 0 -36.8199 0.73152
        CHANNELS 3 Zrotation Xrotation Yrotation
        JOINT rFoot
        {
          OFFSET 0.73152 -45.1104 -5.12064
          CHANNELS 3 Zrotation Xrotation Yrotation
          End Site
          {
            OFFSET -1.1221 -3.69964 12.103
          }
        }
      }
    }
  }
  JOINT lButtock
  {
    OFFSET 8.77824 4.35084 1.2192
    CHANNELS 3 Zrotation Xrotation Yrotation
    JOINT lThigh
    {
      OFFSET 0 -1.70687 -2.19456
      CHANNELS 3 Zrotation Xrotation Yrotation
      JOINT lShin
      {
        OFFSET 0 -36.8199 0.73152
        CHANNELS 3 Zrotation Xrotation Yrotation
        JOINT lFoot
        {
          OFFSET -0.73152 -45.1104 -5.12064
          CHANNELS 3 Zrotation Xrotation Yrotation
          End Site
          {
            OFFSET 1.1221 -3.69964 12.103
          }
        }
      }
    }
  }
}
MOTION
Frames:	6
Frame Time:	0.00833333
65.8067 84.9332 5.67626 4.6361 -39.9967 -9.9711 11.9182 49.9924 11.3907 10.123 -2.85394 3.85207 3.16101 4.61382 0.999539 -13.1994 -26.8592 -1.81846 -0.0 0.0 0.0 -0.0 0.0 0.0 -6.1359e-13 -5.49457e-13 7.26376e-13 30.7589 39.7413 91.9107 -21.9696 -51.6517 109.187 -4.5627 -50.2184 -9.71778 6.55315e-09 3.47526e-09 8.41995e-10 1.1259e-08 5.93134e-09 1.73803e-09 6.55315e-09 3.47526e-09 8.41987e-10 7.73091 5.47488 0.417314 6.55315e-09 3.47526e-09 8.41997e-10 2.90554 0.965183 0.102902 6.55315e-09 3.47526e-09 8.41999e-10 10.2786 0.731801 0.0259123 6.55315e-09 3.47526e-09 8.42006e-10 2.22167 -0.733487 -0.20892 -6.13755e-13 -5.49376e-13 7.26232e-13 -38.9212 42.9601 -67.7788 26.2547 -24.1066 -57.8489 0.449722 18.7075 -2.72789 2.45992e-10 4.34058e-10 -2.49808e-11 4.15149e-10 7.52009e-10 -6.03657e-11 2.45982e-10 4.34075e-10 -2.49445e-11 -7.73091 5.47488 -0.417314 2.45993e-10 4.3406e-10 -2.49727e-11 -2.90554 0.965183 -0.102902 2.45984e-10 4.34061e-10 -2.49729e-11 -10.2786 0.731801 -0.0259123 2.45996e-10 4.3406e-10 -2.49818e-11 -2.22167 -0.733487 0.20892 -2.03217e-16 0.0 -3.88251e-19 -120.473 -71.0081 -128.007 -176.502 63.9456 176.864 0.260894 1.70859 3.84613 2.03217e-16 0.0 3.88251e-19 139.841 -81.9709 149.318 176.7 60.8628 -177.008 -0.401405 -1.27362 -2.92835
65.8274 84.8553 5.7717 4.4217 -39.9106 -10.0036 11.9484 50.3765 11.5322 10.1788 -2.71355 3.87895 3.3678 5.05028 0.972275 -13.4614 -27.4326 -2.02547 -0.0 0.0 0.0 -0.0 0.0 0.0 -6.02552e-13 -5.3119e-13 7.76204e-13 30.5199 40.0343 92.6759 -21.8359 -51.7801 109.546 -4.59736 -50.3482 -9.76294 7.19266e-09 4.07031e-09 5.17457e-10 1.23751e-08 6.96734e-09 1.20463e-09 7.19267e-09 4.07031e-09 5.17451e-10 7.73091 5.47488 0.417314 7.19266e-09 4.07032e-09 5.1746e-10 2.90554 0.965183 0.102902 7.19267e-09 4.07031e-09 5.17462e-10 10.2786 0.731801 0.0259123 7.19266e-09 4.07032e-09 5.1747e-10 2.22167 -0.733487 -0.20892 -6.02719e-13 -5.31117e-13 7.76105e-13 -39.3442 42.571 -68.0616 26.246 -24.083 -57.8109 0.452365 18.7663 -2.73701 -9.50159e-11 9.69678e-10 -4.0603e-11 -1.74661e-10 1.68078e-09 -8.56913e-11 -9.50262e-11 9.69698e-10 -4.05648e-11 -7.73091 5.47488 -0.417314 -9.50143e-11 9.69681e-10 -4.05934e-11 -2.90554 0.965183 -0.102902 -9.50249e-11 9.69682e-10 -4.05942e-11 -10.2786 0.731801 -0.0259123 -9.50129e-11 9.69681e-10 -4.0603e-11 -2.22167 -0.733487 0.20892 -2.03217e-16 0.0 -3.88251e-19 -120.49 -70.9268 -128.022 -176.504 63.9064 176.863 0.21325 1.99327 3.73242 2.03217e-16 0.0 3.88251e-19 139.452 -81.9371 149.004 176.704 60.7975 -177.012 -0.372928 -1.21696 -2.83005
65.8965 84.8025 5.83229 4.4416 -39.807 -10.0227 11.9958 50.6513 11.6033 10.297 -2.60069 3.89192 3.47002 5.60352 0.944408 -13.6344 -28.1779 -2.20709 -0.0 0.0 0.0 -0.0 0.0 0.0 -2.10845e-13 -1.92035e-13 3.72062e-13 30.3576 40.2663 93.3751 -21.7799 -51.8294 109.695 -4.63222 -50.4764 -9.80809 3.96968e-09 2.71484e-09 -5.77059e-10 6.86793e-09 4.68412e-09 -8.25581e-10 3.96969e-09 2.71484e-09 -5.77065e-10 7.73091 5.47488 0.417314 3.96968e-09 2.71484e-09 -5.77055e-10 2.90554 0.965183 0.102902 3.96969e-09 2.71484e-09 -5.77054e-10 10.2786 0.731801 0.0259123 3.96968e-09 2.71484e-09 -5.77045e-10 2.22167 -0.733487 -0.20892 -2.10995e-13 -1.91993e-13 3.71949e-13 -40.1427 42.327 -68.0884 26.2382 -24.062 -57.7772 0.432158 18.3796 -2.67617 -8.80704e-10 1.55585e-09 -1.09714e-10 -1.52872e-09 2.70225e-09 -1.88862e-10 -8.80712e-10 1.55587e-09 -1.09682e-10 -7.73091 5.47488 -0.417314 -8.80702e-10 1.55586e-09 -1.09706e-10 -2.90554 0.965183 -0.102902 -8.80711e-10 1.55586e-09 -1.09707e-10 -10.2786 0.731801 -0.0259123 -8.80701e-10 1.55586e-09 -1.09715e-10 -2.22167 -0.733487 0.20892 -2.03217e-16 0.0 -3.88251e-19 -120.51 -70.7884 -128.036 -176.505 63.8883 176.862 0.160101 2.17901 3.58001 2.03217e-16 0.0 3.88251e-19 139.812 -81.916 149.438 176.705 60.7825 -177.012 -0.346137 -1.0862 -2.75075
65.9745 84.7894 5.8803 4.511 -39.7594 -9.9956 12.0519 50.8647 11.626 10.4457 -2.50123 3.89401 3.50246 6.22764 0.919433 -13.7574 -29.0204 -2.36544 -0.0 0.0 0.0 -0.0 0.0 0.0 4.38484e-13 3.63084e-13 -3.31452e-13 30.2441 40.4462 94.0297 -21.7939 -51.8142 109.658 -4.66179 -50.5843 -9.84631 -1.74618e-09 1.34209e-10 -2.20628e-09 -2.91227e-09 3.18412e-10 -3.88732e-09 -1.74617e-09 1.34214e-10 -2.20629e-09 7.73091 5.47488 0.417314 -1.74618e-09 1.34212e-10 -2.20628e-09 2.90554 0.965183 0.102902 -1.74617e-09 1.34208e-10 -2.20628e-09 10.2786 0.731801 0.0259123 -1.74618e-09 1.34211e-10 -2.20627e-09 2.22167 -0.733487 -0.20892 4.3836e-13 3.63076e-13 -3.3161e-13 -41.1567 42.1497 -67.947 26.2299 -24.0394 -57.741 0.400348 17.7309 -2.57505 -2.04438e-09 2.25942e-09 -2.22248e-10 -3.53331e-09 3.93088e-09 -3.56261e-10 -2.04439e-09 2.25943e-09 -2.22227e-10 -7.73091 5.47488 -0.417314 -2.04438e-09 2.25942e-09 -2.22243e-10 -2.90554 0.965183 -0.102902 -2.04439e-09 2.25942e-09 -2.22245e-10 -10.2786 0.731801 -0.0259123 -2.04438e-09 2.25942e-09 -2.22251e-10 -2.22167 -0.733487 0.20892 -2.03217e-16 0.0 -3.88251e-19 -120.527 -70.6344 -128.05 -176.506 63.8789 176.861 0.10161 2.27219 3.38921 2.03217e-16 0.0 3.88251e-19 140.413 -81.8845 150.112 176.704 60.7911 -177.009 -0.321902 -0.909348 -2.68591
66.0189 84.8016 5.93609 4.4263 -39.7863 -9.8709 12.1279 51.051 11.6455 10.5871 -2.41212 3.89843 3.52396 6.83882 0.887631 -13.8469 -29.8486 -2.52584 -0.0 0.0 0.0 -0.0 0.0 0.0 1.06898e-12 8.9688e-13 -1.01946e-12 30.1809 40.6193 94.5654 -21.8016 -51.8079 109.637 -4.69836 -50.7176 -9.8936 -7.35772e-09 -2.43718e-09 -3.75055e-09 -1.25163e-08 -4.03597e-09 -6.79751e-09 -7.3577e-09 -2.43718e-09 -3.75056e-09 7.73091 5.47488 0.417314 -7.35772e-09 -2.43718e-09 -3.75054e-09 2.90554 0.965183 0.102902 -7.35771e-09 -2.43718e-09 -3.75054e-09 10.2786 0.731801 0.0259123 -7.35772e-09 -2.43718e-09 -3.75053e-09 2.22167 -0.733487 -0.20892 1.06888e-12 8.96828e-13 -1.01967e-12 -42.1812 42.0214 -67.7961 26.2197 -24.012 -57.697 0.371798 17.1003 -2.4778 -3.15829e-09 2.87177e-09 -3.4797e-10 -5.45228e-09 5.00178e-09 -5.46827e-10 -3.1583e-09 2.87178e-09 -3.4796e-10 -7.73091 5.47488 -0.417314 -3.15829e-09 2.87178e-09 -3.47968e-10 -2.90554 0.965183 -0.102902 -3.1583e-09 2.87178e-09 -3.47971e-10 -10.2786 0.731801 -0.0259123 -3.15829e-09 2.87178e-09 -3.47974e-10 -2.22167 -0.733487 0.20892 -2.03217e-16 0.0 -3.88251e-19 -120.515 -70.495 -128.04 -176.505 63.8852 176.859 0.0425663 2.31736 3.18663 2.03217e-16 0.0 3.88251e-19 141.147 -81.8648 150.905 176.702 60.8156 -177.006 -0.298761 -0.735306 -2.6219
66.0333 84.8227 5.99187 4.3247 -39.8837 -9.7583 12.2338 51.2449 11.7083 10.6834 -2.33029 3.91844 3.59359 7.35322 0.839202 -13.92 -30.5509 -2.71343 -0.0 0.0 0.0 -0.0 0.0 0.0 1.40417e-12 1.17207e-12 -1.37708e-12 30.1682 40.8332 94.9092 -21.7265 -51.8833 109.838 -4.75473 -50.9221 -9.96648 -1.02677e-08 -3.76494e-09 -4.59018e-09 -1.7495e-08 -6.28521e-09 -8.3731e-09 -1.02677e-08 -3.76493e-09 -4.59019e-09 7.73091 5.47488 0.417314 -1.02677e-08 -3.76494e-09 -4.59017e-09 2.90554 0.965183 0.102902 -1.02677e-08 -3.76494e-09 -4.59017e-09 10.2786 0.731801 0.0259123 -1.02677e-08 -3.76494e-09 -4.59016e-09 2.22167 -0.733487 -0.20892 1.4041e-12 1.172e-12 -1.37733e-12 -43.0132 41.9261 -67.7926 26.2066 -23.9765 -57.6396 0.357748 16.7681 -2.42699 -3.79468e-09 3.18432e-09 -4.56645e-10 -6.54951e-09 5.55004e-09 -7.19496e-10 -3.79468e-09 3.18432e-09 -4.56642e-10 -7.73091 5.47488 -0.417314 -3.79468e-09 3.18432e-09 -4.56645e-10 -2.90554 0.965183 -0.102902 -3.79468e-09 3.18432e-09 -4.56648e-10 -10.2786 0.731801 -0.0259123 -3.79468e-09 3.18433e-09 -4.56651e-10 -2.22167 -0.733487 0.20892 -2.03217e-16 0.0 -3.88251e-19 -120.449 -70.4002 -127.985 -176.502 63.9136 176.856 -0.0118559 2.35911 2.99887 2.03217e-16 0.0 3.88251e-19 141.915 -81.8797 151.704 176.7 60.8479 -177.002 -0.275178 -0.612977 -2.54506
